<?xml version="1.0" encoding="UTF-8"?>
<svg xmlns="http://www.w3.org/2000/svg" xmlns:xlink="http://www.w3.org/1999/xlink" width="13pt" height="13pt" viewBox="0 0 16 16" version="1.1">
<g id="surface1">
<defs>
    <style>
      .cls-1 {
        fill: #243f4d;
        fill-rule: evenodd;
      }
    </style>
  </defs>
<path class="cls-1"  d="M 13.535156 1.832031 C 11.777344 0.894531 9.460938 1.179688 8.007812 2.488281 C 6.542969 1.179688 4.226562 0.898438 2.476562 1.832031 C 0.949219 2.640625 0 4.191406 0 5.871094 C 0 6.355469 0.078125 6.832031 0.222656 7.246094 C 0.96875 10.476562 5.761719 14.726562 8.007812 14.726562 C 10.25 14.726562 15.039062 10.476562 15.773438 7.300781 C 15.929688 6.832031 16.007812 6.355469 16.007812 5.871094 C 16.007812 4.191406 15.0625 2.640625 13.535156 1.832031 Z M 14.679688 6.988281 C 13.988281 9.996094 9.460938 13.59375 8.007812 13.59375 C 6.390625 13.59375 1.980469 9.828125 1.3125 6.933594 C 1.191406 6.585938 1.132812 6.230469 1.132812 5.871094 C 1.132812 4.613281 1.851562 3.445312 3.003906 2.835938 C 3.542969 2.546875 4.152344 2.398438 4.769531 2.398438 C 5.859375 2.398438 6.882812 2.859375 7.578125 3.664062 L 8.011719 4.160156 L 8.4375 3.664062 C 9.527344 2.402344 11.523438 2.042969 13.007812 2.835938 C 14.160156 3.445312 14.878906 4.613281 14.878906 5.871094 C 14.875 6.230469 14.816406 6.585938 14.679688 6.988281 Z M 14.238281 5.871094 C 14.238281 6.167969 14.1875 6.46875 14.089844 6.761719 C 14.050781 6.878906 13.941406 6.949219 13.820312 6.949219 C 13.789062 6.949219 13.761719 6.949219 13.730469 6.9375 C 13.582031 6.886719 13.503906 6.726562 13.554688 6.578125 C 13.632812 6.34375 13.675781 6.105469 13.675781 5.871094 C 13.675781 5.027344 13.195312 4.246094 12.421875 3.835938 C 12.054688 3.640625 11.65625 3.542969 11.242188 3.542969 C 11.082031 3.542969 10.957031 3.417969 10.957031 3.257812 C 10.957031 3.101562 11.082031 2.976562 11.242188 2.976562 C 11.75 2.976562 12.234375 3.097656 12.6875 3.335938 C 13.644531 3.84375 14.238281 4.816406 14.238281 5.871094 Z M 14.238281 5.871094 "/>
</g>
</svg>
